<?xml version="1.0" encoding="UTF-8"?>
<svg version="1.1" xmlns="http://www.w3.org/2000/svg" width="225" height="225">
<path d="M0 0 C74.25 0 148.5 0 225 0 C225 74.25 225 148.5 225 225 C150.75 225 76.5 225 0 225 C0 150.75 0 76.5 0 0 Z " fill="#020202" transform="translate(0,0)"/>
<path d="M0 0 C1.05703125 0.36222656 2.1140625 0.72445313 3.203125 1.09765625 C15.09970083 5.59700224 24.99424707 13.14285686 34 22 C34.76054687 22.74765625 35.52109375 23.4953125 36.3046875 24.265625 C51.90045235 40.56292944 59.17553065 60.88860624 59.1875 83.1875 C59.19974609 84.36892578 59.21199219 85.55035156 59.22460938 86.76757812 C59.26462812 110.84552189 49.22876953 131.3538507 32.8125 148.6875 C14.39952301 166.50982361 -8.58323417 173.64584774 -33.76586914 173.47485352 C-42.75891318 173.25548134 -50.54936863 172.24206612 -59 169 C-60.03511719 168.63777344 -61.07023437 168.27554688 -62.13671875 167.90234375 C-82.94027238 160.04440736 -101.61987702 142.22619662 -110.89599609 122.05126953 C-119.71623067 101.51052019 -121.94102211 76.16738026 -114 55 C-113.63777344 53.96230469 -113.27554688 52.92460938 -112.90234375 51.85546875 C-108.38467812 39.92576867 -100.88641117 30.03551203 -92 21 C-91.25234375 20.23945312 -90.5046875 19.47890625 -89.734375 18.6953125 C-66.43762868 -3.59859375 -30.372089 -10.87263749 0 0 Z " fill="#FDFDFD" transform="translate(142,28)"/>
<path d="M0 0 C0.33 0 0.66 0 1 0 C1 35.64 1 71.28 1 108 C-34.64 108 -70.28 108 -107 108 C-107 107.67 -107 107.34 -107 107 C-105.25976562 106.83564453 -105.25976562 106.83564453 -103.484375 106.66796875 C-83.1034484 104.64979516 -63.7527038 99.30532478 -47 87 C-46.18789062 86.40832031 -45.37578125 85.81664062 -44.5390625 85.20703125 C-23.26336552 68.93145864 -9.9583047 47.68349866 -3 22 C-2.76539063 21.15953125 -2.53078125 20.3190625 -2.2890625 19.453125 C-0.68317877 13.07613745 -0.3844277 6.54538747 0 0 Z " fill="#FCFCFC" transform="translate(224,117)"/>
<path d="M0 0 C35.64 0 71.28 0 108 0 C108 34.98 108 69.96 108 106 C107.67 106 107.34 106 107 106 C106.90203125 105.01902344 106.8040625 104.03804688 106.703125 103.02734375 C103.40802357 72.33955394 90.20883135 46.49343362 67 26 C47.49150871 10.37844644 24.76905799 2.49638188 0 1 C0 0.67 0 0.34 0 0 Z " fill="#FCFCFC" transform="translate(117,0)"/>
<path d="M0 0 C0.33 0 0.66 0 1 0 C1.05422119 0.5669458 1.10844238 1.1338916 1.16430664 1.71801758 C3.69994928 26.74458377 11.76318671 49.24147767 29 68 C29.44714355 68.48952148 29.89428711 68.97904297 30.35498047 69.48339844 C50.05869293 90.81724983 77.01910803 103.28480435 106 105 C106 105.33 106 105.66 106 106 C71.02 106 36.04 106 0 106 C0 71.02 0 36.04 0 0 Z " fill="#FCFCFC" transform="translate(0,119)"/>
<path d="M0 0 C33.66 0 67.32 0 102 0 C102 0.33 102 0.66 102 1 C101.44763672 1.08975098 100.89527344 1.17950195 100.32617188 1.27197266 C76.75803386 5.19185974 55.88910951 12.56207194 38 29 C37.51047852 29.44714355 37.02095703 29.89428711 36.51660156 30.35498047 C15.5967889 49.67629127 6.02311067 73.5222925 1 101 C0.67 101 0.34 101 0 101 C0 67.67 0 34.34 0 0 Z " fill="#FDFDFD" transform="translate(0,0)"/>
<path d="M0 0 C1.10794922 -0.04253906 1.10794922 -0.04253906 2.23828125 -0.0859375 C8.65161952 1.12103844 13.23459452 6.63872106 17.625 11.125 C18.24689209 11.7533374 18.86878418 12.3816748 19.50952148 13.02905273 C23.07271571 16.65218767 26.48875032 20.34942048 29.765625 24.234375 C33.09700649 27.94493812 36.68347977 31.40958051 40.24633789 34.89672852 C46.54384439 41.09722114 46.54384439 41.09722114 46.91015625 44.35546875 C46.57599982 48.96030729 45.74423897 51.77784444 42.58325195 55.20532227 C41.95085602 55.89522247 41.31846008 56.58512268 40.66690063 57.29592896 C37.58030065 60.53795108 34.46331833 63.74208963 31.29296875 66.90234375 C30.61953934 67.57672989 29.94610992 68.25111603 29.25227356 68.94593811 C27.8442956 70.35459068 26.43507776 71.76200499 25.0246582 73.16821289 C22.85966396 75.32779773 20.70012744 77.49273882 18.54101562 79.65820312 C17.16698763 81.0315712 15.79264994 82.40462951 14.41796875 83.77734375 C13.77216354 84.42517319 13.12635834 85.07300262 12.46098328 85.74046326 C11.86308487 86.3352095 11.26518646 86.92995575 10.64916992 87.54272461 C9.8614344 88.32926674 9.8614344 88.32926674 9.05778503 89.13169861 C6.01046283 91.89662695 2.95822551 91.76226392 -0.984375 91.73046875 C-4.94019681 91.12647582 -6.61908423 89.27042195 -9.3125 86.375 C-10.50740372 82.79028885 -10.59760108 80.14240711 -10.3125 76.375 C-4.29618178 65.30990012 7.77514291 56.09997129 16.6875 47.375 C12.50987434 38.22942118 3.65536474 31.2720156 -3.43554688 24.37890625 C-4.16451172 23.66089844 -4.89347656 22.94289063 -5.64453125 22.203125 C-6.30171143 21.5627832 -6.9588916 20.92244141 -7.63598633 20.26269531 C-10.13616608 17.44758102 -11.20092278 15.23042533 -11.6875 11.5 C-11.21111498 7.53012486 -9.78209574 5.47963464 -7.3125 2.375 C-4.27839663 0.35226442 -3.45879 0.05973731 0 0 Z " fill="#020202" transform="translate(99.3125,66.625)"/>
</svg>
