<?xml version="1.0" encoding="UTF-8"?>
<svg version="1.1" xmlns="http://www.w3.org/2000/svg" width="225" height="225">
<path d="M0 0 C74.25 0 148.5 0 225 0 C225 74.25 225 148.5 225 225 C150.75 225 76.5 225 0 225 C0 150.75 0 76.5 0 0 Z " fill="#020202" transform="translate(0,0)"/>
<path d="M0 0 C1.22847656 0.00684814 2.45695312 0.01369629 3.72265625 0.02075195 C13.15670328 0.18699341 21.35584904 1.25356098 30.25 4.4375 C31.30703125 4.79972656 32.3640625 5.16195313 33.453125 5.53515625 C45.34970083 10.03450224 55.24424707 17.58035686 64.25 26.4375 C65.01054687 27.18515625 65.77109375 27.9328125 66.5546875 28.703125 C84.45810206 47.41188347 89.70647368 69.53778386 89.4609375 94.73046875 C88.95624965 117.31992316 78.92659188 136.49831864 63.25 152.4375 C62.49074219 153.20964844 61.73148438 153.98179687 60.94921875 154.77734375 C41.87059968 173.04410669 18.51634603 177.98521591 -7.03515625 177.71875 C-14.80485472 177.50319449 -21.4514618 176.20622407 -28.75 173.4375 C-29.78640625 173.07527344 -30.8228125 172.71304688 -31.890625 172.33984375 C-53.41343604 164.19980624 -71.68898676 145.92047678 -81.25390625 125.17578125 C-86.10812273 113.16340673 -88.29914551 101.50266087 -88.1875 88.5625 C-88.18065186 87.33595703 -88.17380371 86.10941406 -88.16674805 84.84570312 C-88.00590969 75.761649 -87.01581323 67.97388309 -83.75 59.4375 C-83.41097656 58.4371875 -83.07195312 57.436875 -82.72265625 56.40625 C-75.08585647 35.75156021 -58.46204978 18.21071647 -38.81787109 8.48046875 C-26.2367185 2.7036361 -13.86130308 -0.11913249 0 0 Z " fill="#FDFDFD" transform="translate(111.75,23.5625)"/>
<path d="M0 0 C0.33 0 0.66 0 1 0 C1 34.98 1 69.96 1 106 C-33.98 106 -68.96 106 -105 106 C-105 105.67 -105 105.34 -105 105 C-104.44352783 104.95101562 -103.88705566 104.90203125 -103.3137207 104.8515625 C-72.01905959 101.88239314 -45.87026132 88.66760863 -25 65 C-14.26165656 51.58553942 -7.45763799 36.48963646 -3 20 C-2.76539063 19.13632813 -2.53078125 18.27265625 -2.2890625 17.3828125 C-0.88409505 11.66113345 -0.41667408 5.86633242 0 0 Z " fill="#FCFCFC" transform="translate(224,119)"/>
<path d="M0 0 C34.98 0 69.96 0 106 0 C106 34.98 106 69.96 106 106 C105.67 106 105.34 106 105 106 C104.90203125 105.01902344 104.8040625 104.03804688 104.703125 103.02734375 C101.40802357 72.33955394 88.20883135 46.49343362 65 26 C46.1656688 10.9182846 23.93214276 2.75903564 0 1 C0 0.67 0 0.34 0 0 Z " fill="#FCFCFC" transform="translate(119,0)"/>
<path d="M0 0 C0.33 0 0.66 0 1 0 C1.04898438 0.55647217 1.09796875 1.11294434 1.1484375 1.6862793 C4.11760686 32.98094041 17.33239137 59.12973868 41 80 C59.60332187 94.89205311 82.23685281 103.59360966 106 105 C106 105.33 106 105.66 106 106 C71.02 106 36.04 106 0 106 C0 71.02 0 36.04 0 0 Z " fill="#FCFCFC" transform="translate(0,119)"/>
<path d="M0 0 C34.98 0 69.96 0 106 0 C106 0.33 106 0.66 106 1 C105.01902344 1.09796875 104.03804688 1.1959375 103.02734375 1.296875 C72.33955394 4.59197643 46.49343362 17.79116865 26 41 C11.36837005 59.27225599 2.560112 81.65211696 1 105 C0.67 105 0.34 105 0 105 C0 70.35 0 35.7 0 0 Z " fill="#FCFCFC" transform="translate(0,0)"/>
<path d="M0 0 C3.50745952 2.04601805 5.73959779 4.10421136 7 8 C7.69993165 13.36614266 6.12632415 15.72518246 3 20 C1.4198167 21.72314518 -0.2090388 23.40267891 -1.87890625 25.0390625 C-2.79994141 25.94914062 -3.72097656 26.85921875 -4.66992188 27.796875 C-5.63375868 28.73994721 -6.59795473 29.6826524 -7.5625 30.625 C-9.46295488 32.48887709 -11.35906812 34.35695347 -13.25390625 36.2265625 C-14.09252197 37.04721191 -14.9311377 37.86786133 -15.79516602 38.71337891 C-17.72857137 40.71850287 -19.394278 42.72938074 -21 45 C-19.51675802 48.46871478 -17.55791285 50.65087099 -14.859375 53.265625 C-14.03566406 54.07386719 -13.21195313 54.88210937 -12.36328125 55.71484375 C-10.63695218 57.38956358 -8.91039398 59.06404724 -7.18359375 60.73828125 C5.5830511 73.26666835 5.5830511 73.26666835 6.5625 79.6875 C5.8142663 84.0937651 4.31927819 86.5284974 1.375 89.8125 C-2.4828844 91.7414422 -5.79921997 91.87962858 -10 91 C-11.95046997 89.66397095 -11.95046997 89.66397095 -13.82861328 87.91650391 C-14.51908752 87.28013 -15.20956177 86.6437561 -15.92095947 85.98809814 C-16.60704285 85.33202576 -17.29312622 84.67595337 -18 84 C-18.62243591 83.40854187 -19.24487183 82.81708374 -19.88616943 82.20770264 C-21.77140124 80.39153521 -23.63492381 78.55568278 -25.4921875 76.7109375 C-26.16420197 76.04462311 -26.83621643 75.37830872 -27.52859497 74.69180298 C-28.93319608 73.29656656 -30.33641257 71.89993493 -31.73828125 70.50195312 C-33.88357838 68.36646082 -36.03931423 66.2418685 -38.1953125 64.1171875 C-39.5657598 62.75326262 -40.93557431 61.38870156 -42.3046875 60.0234375 C-42.94735565 59.39311615 -43.5900238 58.7627948 -44.25216675 58.1133728 C-48.33843259 54.00648498 -50.63612338 50.88475384 -51.37890625 44.99609375 C-50.8929883 41.15383534 -49.6145666 39.82001268 -46.9375 37.0625 C-46.11378906 36.20011719 -45.29007812 35.33773437 -44.44140625 34.44921875 C-43.23291016 33.23685547 -43.23291016 33.23685547 -42 32 C-41.36964844 31.36707031 -40.73929688 30.73414062 -40.08984375 30.08203125 C-38.94659894 28.94399485 -37.79944992 27.80986712 -36.6484375 26.6796875 C-35.0122509 25.01248314 -33.50792338 23.28348298 -32 21.5 C-28.27879609 17.1813551 -24.27313892 13.15961175 -20.25 9.125 C-19.58742188 8.45791016 -18.92484375 7.79082031 -18.2421875 7.10351562 C-17.61054687 6.47380859 -16.97890625 5.84410156 -16.328125 5.1953125 C-15.47589355 4.34477295 -15.47589355 4.34477295 -14.60644531 3.47705078 C-10.03467856 -0.72647336 -5.9399431 -0.77807561 0 0 Z " fill="#020202" transform="translate(130,67)"/>
</svg>
